<svg xmlns="http://www.w3.org/2000/svg" width="174" height="199" viewBox="0 0 174 199"><g><g><path fill="none" stroke="#fff" stroke-miterlimit="20" stroke-width="9" d="M85.971 6.03v0L5.431 53.545v0l.89 93.493v0l81.4 45.98v0l80.54-47.514v0l-.89-93.493v0z"/></g><g><path fill="none" stroke="#fff" stroke-miterlimit="20" stroke-width="9" d="M7.24 53.42v0L85.357 7.33v0l81.867 138.76v0L89.107 192.18v0z"/></g><g><path fill="none" stroke="#fff" stroke-miterlimit="20" stroke-width="9" d="M8.814 142.622v0l11.453-20.28L85.971 6v0"/></g><g><path fill="none" stroke="#fff" stroke-miterlimit="20" stroke-width="9" d="M87.72 193.016v0l57.871-102.45 21.78-38.556v0"/></g><g><path fill="none" stroke="#fff" stroke-miterlimit="20" stroke-width="18" d="M46.898 99.186c0-22.36 18.126-40.485 40.485-40.485 22.36 0 40.485 18.126 40.485 40.485 0 22.36-18.126 40.485-40.485 40.485-22.36 0-40.485-18.126-40.485-40.485z"/></g></g></svg>