<svg xmlns="http://www.w3.org/2000/svg" width="179.097" height="288.099" viewBox="0 0 179.097 288.099">
  <g id="Слой_1" data-name="Слой 1" transform="translate(-1.297 5.165)">
    <line id="Line_9" data-name="Line 9" x2="179.097" transform="translate(1.297 239.659)" fill="none" stroke="#fff" stroke-miterlimit="10" stroke-width="3"/>
    <path id="Path_12" data-name="Path 12" d="M19.675,90.458c-.859-3.346-2.3-6.661-7.06-6.661a5.064,5.064,0,0,0-5.31,5.556c0,3.5,2.21,5.249,6.415,7.428,6.139,3.069,8.748,5.494,8.748,10.313,0,5.31-4.635,9.392-11.172,9.392A20.9,20.9,0,0,1,3.531,114.8a66.177,66.177,0,0,1-1.351-7.612l1.565-.4c1.013,3.407,3.254,7.827,8.533,7.827a5.586,5.586,0,0,0,5.862-5.863c0-3.9-2.056-5.463-6.538-7.888-5.31-2.885-8.318-5.341-8.318-9.945S7.03,82.14,13.721,82.14a32.108,32.108,0,0,1,6.722.952c.184,1.842.4,3.867.8,7.152Z" transform="translate(2.511 166.448)" fill="#f2f2f2"/>
    <path id="Path_13" data-name="Path 13" d="M29.012,104.169a11.571,11.571,0,0,1-8.287,4.942A10.16,10.16,0,0,1,10.78,98.184a13.014,13.014,0,0,1,3.284-8.87,10.405,10.405,0,0,1,7.551-3.683,7.919,7.919,0,0,1,7.765,7.858c0,1.013-.215,1.473-1.013,1.657a115.559,115.559,0,0,1-13.781.829c0,6.814,3.99,9.607,7.612,9.607a8.471,8.471,0,0,0,5.862-2.609ZM20.295,87.533c-2.333,0-4.635,2.179-5.341,6.139H23.64c.89,0,1.2-.246,1.2-1.013a4.727,4.727,0,0,0-4.543-5.126Z" transform="translate(20.247 173.67)" fill="#f2f2f2"/>
    <path id="Path_14" data-name="Path 14" d="M29.864,108.6H18.2v-1.412c3.069-.307,3.5-.583,3.5-3.867V92.762c0-3.346-.184-3.5-3.069-3.837V87.636a28.728,28.728,0,0,0,7.152-2.056v5.556c1.78-2.609,3.9-5.4,6.446-5.4A2.64,2.64,0,0,1,35.3,88.158a3.438,3.438,0,0,1-1.75,2.793,1.013,1.013,0,0,1-1.32,0,3.069,3.069,0,0,0-2.271-1.289c-1.074,0-3.069,1.565-4.052,4.174v9.515c0,3.346.246,3.622,4.144,3.929Z" transform="translate(35.662 173.566)" fill="#f2f2f2"/>
    <path id="Path_15" data-name="Path 15" d="M49.079,87.2c-2.732.368-3.069.767-4.42,3.806-1.688,4.052-4.573,10.8-7.213,17.649H35.973c-2.118-5.832-4.6-11.878-7-17.8C27.809,87.784,27.41,87.6,24.77,87.2V85.82H35.114V87.2c-2.793.368-2.885.706-2.056,2.885,1.258,3.5,3.376,8.87,4.819,12.431,1.811-4.512,3.5-8.656,4.6-11.909.859-2.486.706-3.069-2.64-3.407V85.82h9.208Z" transform="translate(49.258 174.063)" fill="#f2f2f2"/>
    <path id="Path_16" data-name="Path 16" d="M33.64,115.553v-1.412c3.069-.307,3.56-.583,3.56-4.021V99.685c0-3.069,0-3.346-3.069-3.867V94.59a31.157,31.157,0,0,0,7.182-2.026v17.557c0,3.438.368,3.714,3.653,4.021v1.412Zm5.279-27.87a2.732,2.732,0,1,1,0-5.463A2.64,2.64,0,0,1,41.5,85.013a2.7,2.7,0,0,1-2.578,2.67Z" transform="translate(67.613 166.613)" fill="#f2f2f2"/>
    <path id="Path_17" data-name="Path 17" d="M57.5,103.929a12.277,12.277,0,0,1-8.686,5.187A10.221,10.221,0,0,1,38.566,98.466a12.063,12.063,0,0,1,5.126-9.945,13.413,13.413,0,0,1,7.735-2.885,7.612,7.612,0,0,1,4.7,1.351,1.627,1.627,0,0,1,.829,1.473,2.578,2.578,0,0,1-1.842,2.3c-.246,0-.46,0-.952-.522a7.581,7.581,0,0,0-5.034-2.118c-3.346,0-6.139,2.824-6.139,8.1,0,7.06,4.758,9.392,7.7,9.392a8.1,8.1,0,0,0,6.139-2.793Z" transform="translate(77.789 173.664)" fill="#f2f2f2"/>
    <path id="Path_18" data-name="Path 18" d="M64.394,104.169a11.571,11.571,0,0,1-8.41,4.942A10.16,10.16,0,0,1,46.04,98.184a13.014,13.014,0,0,1,3.284-8.87,10.405,10.405,0,0,1,7.551-3.683,7.919,7.919,0,0,1,7.765,7.858c0,1.013-.184,1.473-1.013,1.657s-7.489.675-13.536.859c0,6.814,3.99,9.607,7.612,9.607A8.441,8.441,0,0,0,63.566,103ZM55.677,87.533c-2.333,0-4.635,2.179-5.341,6.139h8.686c.89,0,1.2-.246,1.2-1.013a4.727,4.727,0,0,0-4.451-5.126Z" transform="translate(93.212 173.67)" fill="#f2f2f2"/>
    <path id="Path_19" data-name="Path 19" d="M66.5,92.26c-.921-3.069-2.241-4.972-5.341-4.972A3.069,3.069,0,0,0,58.091,90.6c0,2.179,1.473,3.069,4.3,4.512,4.358,2.056,6.538,3.591,6.538,6.937a7.551,7.551,0,0,1-8.257,7.06,13.229,13.229,0,0,1-6.139-1.443c-.246-1.443-.706-4.236-.89-5.924l1.443-.246c.921,3.254,2.7,5.893,6.139,5.893a3.376,3.376,0,0,0,3.53-3.468c0-2.271-1.351-3.438-4.052-4.758-3.56-1.719-6.446-3.346-6.446-7s3.069-6.538,7.919-6.538a26.151,26.151,0,0,1,4.88.645,39.607,39.607,0,0,0,.767,5.648Z" transform="translate(109.001 173.67)" fill="#f2f2f2"/>
    <g id="Group_14" data-name="Group 14" transform="translate(7 3)">
      <text id="ELITEM" transform="translate(0 230.997)" fill="#fff" font-size="60" font-family="Consolas" letter-spacing="-0.1em"><tspan x="0" y="0">ELITEM</tspan></text>
    </g>
    <path id="Path_20" data-name="Path 20" d="M84.59,1.16,4.05,48.674l.89,93.493,81.4,45.979,80.54-47.514-.89-93.493Z" transform="translate(8.381 -1.129)" fill="none" stroke="#fff" stroke-miterlimit="10" stroke-width="9"/>
    <path id="Path_33" data-name="Path 33" d="M0,0H90.7V161.111H0Z" transform="translate(14.24 47.419) rotate(-30.54)" fill="none" stroke="#fff" stroke-width="9"/>
    <path id="Path_22" data-name="Path 22" d="M.7,136.622l11.453-20.28L77.852,0" transform="translate(15.119 0)" fill="none" stroke="#fff" stroke-width="9"/>
    <path id="Path_21" data-name="Path 21" d="M0,141.007,57.871,38.556,79.65,0" transform="translate(94.721 46.01)" fill="none" stroke="#fff" stroke-width="9"/>
    <circle id="Ellipse_1" data-name="Ellipse 1" cx="40.485" cy="40.485" r="40.485" transform="translate(53.898 52.701)" fill="none" stroke="#fff" stroke-miterlimit="10" stroke-width="18"/>
  </g>
</svg>
